<svg width="32" height="31" viewBox="0 0 32 31" fill="none" xmlns="http://www.w3.org/2000/svg">
<g clip-path="url(#clip0_1228_65)">
<path d="M15.9717 7.52685L16.514 6.59108C16.8478 6.00696 17.5929 5.81027 18.177 6.14405C18.7611 6.47783 18.9578 7.22287 18.624 7.80699L13.4087 16.8369H17.1816C18.4035 16.8369 19.0889 18.2734 18.5584 19.2688H7.50198C6.82846 19.2688 6.28607 18.7264 6.28607 18.0528C6.28607 17.3793 6.82846 16.8369 7.50198 16.8369H10.6014L14.571 9.95868L13.3312 7.80699C12.9974 7.22287 13.1941 6.48379 13.7782 6.14405C14.3624 5.81027 15.1014 6.00696 15.4412 6.59108L15.9717 7.52685ZM11.2809 20.5204L10.1126 22.547C9.77884 23.1311 9.03379 23.3278 8.44968 22.994C7.86556 22.6602 7.66887 21.9152 8.00265 21.331L8.87287 19.829C9.85036 19.5251 10.6491 19.7575 11.2809 20.5204ZM21.3479 16.8429H24.5128C25.1864 16.8429 25.7288 17.3853 25.7288 18.0588C25.7288 18.7323 25.1864 19.2747 24.5128 19.2747H22.7545L23.9407 21.331C24.2744 21.9152 24.0777 22.6542 23.4936 22.994C22.9095 23.3278 22.1704 23.1311 21.8307 22.547C19.834 19.084 18.332 16.4912 17.3366 14.7627C16.3174 13.0044 17.0445 11.2402 17.7657 10.6441C18.5644 12.015 19.7565 14.0832 21.3479 16.8429ZM15.9776 0.797607C7.81192 0.797607 1.19592 7.41361 1.19592 15.5793C1.19592 23.745 7.81192 30.361 15.9776 30.361C24.1433 30.361 30.7593 23.745 30.7593 15.5793C30.7593 7.41361 24.1433 0.797607 15.9776 0.797607ZM28.852 15.5793C28.852 22.6542 23.1241 28.4537 15.9776 28.4537C8.90267 28.4537 3.10324 22.7258 3.10324 15.5793C3.10324 8.50435 8.83114 2.70492 15.9776 2.70492C23.0526 2.70492 28.852 8.43283 28.852 15.5793Z" fill="white"/>
</g>
<defs>
<clipPath id="clip0_1228_65">
<rect width="30.517" height="30.517" fill="white" transform="translate(0.719116 0.320801)"/>
</clipPath>
</defs>
</svg>
