<svg width="48" height="48" viewBox="0 0 48 48" fill="none" xmlns="http://www.w3.org/2000/svg">
<g clip-path="url(#clip0_1119_204)">
<path d="M26 40C26.5304 40 27.0391 40.2107 27.4142 40.5858C27.7893 40.9609 28 41.4696 28 42C28 42.5304 27.7893 43.0391 27.4142 43.4142C27.0391 43.7893 26.5304 44 26 44H22C21.4696 44 20.9609 43.7893 20.5858 43.4142C20.2107 43.0391 20 42.5304 20 42C20 41.4696 20.2107 40.9609 20.5858 40.5858C20.9609 40.2107 21.4696 40 22 40H26ZM24 4C32.82 4 40 11.086 40 19.866C40 25.878 36.956 30.258 34.44 32.854L33.872 33.42L33.332 33.924L32.828 34.364L32.168 34.904L31.512 35.392C31.12 35.668 30.832 36.05 30.58 36.462L30.29 36.964L30.008 37.468C29.528 38.292 28.972 39 27.786 39H20.214C19.028 39 18.472 38.292 17.994 37.468L17.568 36.712C17.278 36.206 16.958 35.724 16.488 35.392L16.024 35.05L15.626 34.74L15.172 34.364L14.668 33.924L14.128 33.42L13.558 32.854C11.044 30.258 8 25.878 8 19.866C8 11.086 15.18 4 24 4ZM24 8C17.354 8 12 13.33 12 19.866C12 25.114 15.066 28.854 17.186 30.808L17.676 31.244L18.116 31.608L18.656 32.024L18.8 32.128C19.43 32.572 19.898 33.19 20.324 33.836L21.07 35H26.93L27.676 33.836C28.102 33.19 28.57 32.572 29.2 32.128L29.686 31.764L30.098 31.434L30.564 31.034C32.684 29.152 36 25.324 36 19.866C36 13.33 30.646 8 24 8ZM24.586 12.586C24.9459 12.2273 25.4289 12.0191 25.9368 12.0035C26.4447 11.988 26.9394 12.1664 27.3206 12.5025C27.7017 12.8386 27.9406 13.3071 27.9888 13.8129C28.037 14.3188 27.8908 14.824 27.58 15.226L27.414 15.414L24.828 18L27.4 20.572C28.128 21.3 28.184 22.446 27.568 23.238L27.4 23.428L23.414 27.414C23.0541 27.7727 22.5711 27.9809 22.0632 27.9965C21.5553 28.012 21.0606 27.8336 20.6794 27.4975C20.2983 27.1614 20.0594 26.6929 20.0112 26.1871C19.963 25.6812 20.1092 25.176 20.42 24.774L20.586 24.586L23.172 22L20.6 19.428C20.2523 19.0802 20.0433 18.6176 20.0124 18.1267C19.9815 17.6359 20.1307 17.1507 20.432 16.762L20.6 16.572L24.586 12.586Z" fill="white"/>
</g>
<defs>
<clipPath id="clip0_1119_204">
<rect width="48" height="48" fill="white"/>
</clipPath>
</defs>
</svg>
