<svg width="32" height="31" viewBox="0 0 32 31" fill="none" xmlns="http://www.w3.org/2000/svg">
<g clip-path="url(#clip0_1228_62)">
<path d="M3.7709 1.33809L4.28358 0.459202C4.12899 0.368993 3.95334 0.32117 3.77435 0.320563C3.59536 0.319955 3.41939 0.366584 3.26419 0.455741C3.10899 0.544899 2.98006 0.673428 2.89042 0.828351C2.80078 0.983275 2.75361 1.15911 2.75366 1.33809H3.7709ZM3.7709 29.8207H2.75366C2.75361 29.9996 2.80078 30.1755 2.89042 30.3304C2.98006 30.4853 3.10899 30.6139 3.26419 30.703C3.41939 30.7922 3.59536 30.8388 3.77435 30.8382C3.95334 30.8376 4.12899 30.7898 4.28358 30.6996L3.7709 29.8207ZM28.1845 15.5794L28.6972 16.4583C28.8509 16.3687 28.9784 16.2404 29.067 16.0862C29.1556 15.932 29.2023 15.7572 29.2023 15.5794C29.2023 15.4015 29.1556 15.2268 29.067 15.0725C28.9784 14.9183 28.8509 14.79 28.6972 14.7005L28.1845 15.5794ZM2.75366 1.33809V29.8207H4.78813V1.33809H2.75366ZM4.28358 30.6996L28.6972 16.4583L27.6718 14.7005L3.25821 28.9418L4.28358 30.6996ZM28.6972 14.7005L4.28358 0.459202L3.25821 2.21698L27.6718 16.4583L28.6972 14.7005ZM4.44024 26.5167L20.716 12.2754L19.3773 10.7455L3.10156 24.9868L4.44024 26.5167ZM3.10156 6.17199L19.3773 20.4133L20.716 18.8834L4.44024 4.64207L3.10156 6.17199Z" fill="white"/>
</g>
<defs>
<clipPath id="clip0_1228_62">
<rect width="30.517" height="30.517" fill="white" transform="translate(0.719116 0.320801)"/>
</clipPath>
</defs>
</svg>
