<svg width="32" height="33" viewBox="0 0 32 33" fill="none" xmlns="http://www.w3.org/2000/svg">
<g clip-path="url(#clip0_1235_91)">
<path d="M31.024 14.1391C31.024 6.37114 24.7253 0.0844727 16.9707 0.0844727C14.8187 0.0844727 12.716 0.507139 10.7533 1.35381C8.8505 2.15718 7.122 3.3228 5.66399 4.78581C4.17407 6.26651 2.99257 8.02798 2.18788 9.9683C1.38319 11.9086 0.971286 13.9892 0.975992 16.0898C0.971595 18.1907 1.38363 20.2717 2.1883 22.2124C2.99296 24.1531 4.17428 25.9151 5.66399 27.3965C7.12422 28.8564 8.85219 30.0212 10.7533 30.8271C12.7232 31.6622 14.8418 32.0899 16.9813 32.0845C19.0613 32.0845 21.048 31.6845 22.8693 30.9685L21.6587 27.9125C20.1705 28.5049 18.5831 28.8081 16.9813 28.8058C15.3109 28.8097 13.6563 28.4824 12.1131 27.843C10.57 27.2036 9.1688 26.2646 7.99066 25.0805C6.80674 23.9022 5.86805 22.501 5.22886 20.9578C4.58967 19.4147 4.26263 17.7601 4.26666 16.0898C4.26291 14.4196 4.59021 12.7652 5.22963 11.2223C5.86905 9.67934 6.80793 8.27841 7.99199 7.10047C9.1708 5.9172 10.5721 4.97886 12.1151 4.3395C13.6581 3.70013 15.3124 3.37239 16.9827 3.37514C18.9273 3.37496 20.8357 3.90167 22.5049 4.89929C24.1742 5.89691 25.542 7.32815 26.4629 9.04092C27.3838 10.7537 27.8235 12.684 27.7352 14.6266C27.6469 16.5692 27.0339 18.4517 25.9613 20.0738L23.164 13.1871C22.7533 12.1765 22.2587 10.6605 20.4027 10.6605C18.5453 10.6605 18.052 12.1885 17.652 13.1871L15.0787 19.5458L11.624 10.8258H7.99066L12.292 21.4258C12.7267 22.4951 13.2093 23.9525 15.0787 23.9525C16.9453 23.9525 17.416 22.4951 17.852 21.4258L20.4013 15.1271L22.9627 21.4258C23.48 22.7298 24.032 23.9525 25.736 23.9525C26.9467 23.9525 27.7107 23.1765 28.1333 22.6725C30.0115 20.2246 31.0277 17.2245 31.024 14.1391Z" fill="white"/>
</g>
<defs>
<clipPath id="clip0_1235_91">
<rect width="32" height="32" fill="white" transform="translate(0 0.0844727)"/>
</clipPath>
</defs>
</svg>
